<svg width="40" height="40" viewBox="0 0 40 40" fill="none" xmlns="http://www.w3.org/2000/svg">
<path d="M0.685937 25.2121C0.238594 23.5504 0 21.803 0 20C0 8.9543 8.9543 0 20 0C31.0457 0 40 8.9543 40 20C40 21.803 39.7614 23.5504 39.3141 25.2121H0.685937Z" fill="#2476ED"/>
<path d="M16.4062 11.7188H10.1562C9.72477 11.7188 9.375 11.369 9.375 10.9375V7.8125C9.375 7.38102 9.72477 7.03125 10.1562 7.03125H16.4062C16.8377 7.03125 17.1875 7.38102 17.1875 7.8125V10.9375C17.1875 11.369 16.8377 11.7188 16.4062 11.7188ZM31.25 10.9375V7.8125C31.25 7.38102 30.9002 7.03125 30.4688 7.03125H24.2188C23.7873 7.03125 23.4375 7.38102 23.4375 7.8125V10.9375C23.4375 11.369 23.7873 11.7188 24.2188 11.7188H30.4688C30.9002 11.7188 31.25 11.369 31.25 10.9375Z" fill="#3F4A4A"/>
<path d="M15.625 7.8125C16.0565 7.8125 16.4062 8.16227 16.4062 8.59375C16.4062 9.02523 16.0565 9.375 15.625 9.375C15.1935 9.375 14.8438 9.02523 14.8438 8.59375C14.8438 8.16227 15.1935 7.8125 15.625 7.8125ZM12.5 8.59375C12.5 9.02523 12.8498 9.375 13.2812 9.375C13.7127 9.375 14.0625 9.02523 14.0625 8.59375C14.0625 8.16227 13.7127 7.8125 13.2812 7.8125C12.8498 7.8125 12.5 8.16227 12.5 8.59375ZM10.1562 8.59375C10.1562 9.02523 10.506 9.375 10.9375 9.375C11.369 9.375 11.7188 9.02523 11.7188 8.59375C11.7188 8.16227 11.369 7.8125 10.9375 7.8125C10.506 7.8125 10.1562 8.16227 10.1562 8.59375ZM28.9062 8.59375C28.9062 9.02523 29.256 9.375 29.6875 9.375C30.119 9.375 30.4688 9.02523 30.4688 8.59375C30.4688 8.16227 30.119 7.8125 29.6875 7.8125C29.256 7.8125 28.9062 8.16227 28.9062 8.59375ZM26.5625 8.59375C26.5625 9.02523 26.9123 9.375 27.3438 9.375C27.7752 9.375 28.125 9.02523 28.125 8.59375C28.125 8.16227 27.7752 7.8125 27.3438 7.8125C26.9123 7.8125 26.5625 8.16227 26.5625 8.59375ZM24.2188 8.59375C24.2188 9.02523 24.5685 9.375 25 9.375C25.4315 9.375 25.7812 9.02523 25.7812 8.59375C25.7812 8.16227 25.4315 7.8125 25 7.8125C24.5685 7.8125 24.2188 8.16227 24.2188 8.59375Z" fill="#FC7117"/>
<path d="M20.5078 0.585938V25.1953C20.5078 25.5189 20.2455 25.7812 19.9219 25.7812C19.5983 25.7812 19.3359 25.5189 19.3359 25.1953V3.125L19.6792 2.56148V1.34477L19.3359 0.78125V0.585938C19.3359 0.262344 19.5983 0 19.9219 0C20.2455 0 20.5078 0.262344 20.5078 0.585938Z" fill="#E1EBF0"/>
<path d="M25 0.78125L24.0234 3.125H19.3359V0.78125H25Z" fill="#FC7117"/>
<path d="M39.37 25C38.8473 27.0308 38.0136 28.9367 36.9229 30.6641C36.8673 30.752 36.4216 30.7059 36.3647 30.7929C36.23 30.9991 36.0915 31.2027 35.9495 31.4034C35.8785 31.5037 36.1962 31.737 36.1234 31.8359C34.578 33.9376 32.6316 35.726 30.3971 37.0885C30.3081 37.1427 29.9087 36.9634 29.8189 37.0163C29.6427 37.1199 29.4647 37.221 29.2852 37.3194C29.1552 37.3905 29.3343 37.6934 29.2025 37.7617C26.4478 39.1919 23.3183 40 20 40C16.6818 40 13.5522 39.1919 10.7975 37.7617C10.7099 37.7163 10.8565 37.5018 10.7697 37.4551C10.5343 37.3284 10.3018 37.1972 10.0722 37.0615C9.99333 37.0149 9.68106 37.1361 9.60302 37.0885C7.36841 35.726 5.422 33.9376 3.87669 31.8359C3.83481 31.779 4.10224 31.6942 4.06091 31.6368C3.87864 31.3833 3.70208 31.1254 3.53153 30.8632C3.48263 30.788 3.12521 30.74 3.07724 30.6641C1.98646 28.9367 1.15286 27.0308 0.630127 25H39.37Z" fill="#D2ED11"/>
<path d="M19.3359 17.5765V20.5386C19.3359 24.6366 16.0138 27.9588 11.9157 27.9588H7.42023C3.32211 27.9587 0 24.6366 0 20.5386V17.5765C0 13.4784 3.32211 10.1562 7.42023 10.1562H11.9158C16.0138 10.1562 19.3359 13.4784 19.3359 17.5765Z" fill="white"/>
<path d="M40 17.5765V20.5386C40 24.6366 36.6779 27.9588 32.5798 27.9588H10.5452C6.44711 27.9587 3.125 24.6366 3.125 20.5386V17.5765C3.125 13.4784 6.44711 10.1562 10.5452 10.1562H32.5798C36.6779 10.1562 40 13.4784 40 17.5765Z" fill="white"/>
<path d="M2.05603 19.3865L1.3004 18.6309C1.23938 18.5699 1.23938 18.471 1.3004 18.41L2.05603 17.6544C2.11704 17.5933 2.21595 17.5933 2.27696 17.6544L3.03259 18.41C3.0936 18.471 3.0936 18.5699 3.03259 18.6309L2.27696 19.3865C2.21595 19.4476 2.11704 19.4476 2.05603 19.3865ZM4.19415 22.2803L4.94977 21.5247C5.01079 21.4636 5.01079 21.3647 4.94977 21.3037L4.19415 20.5481C4.13313 20.4871 4.03423 20.4871 3.97321 20.5481L3.21759 21.3037C3.15657 21.3647 3.15657 21.4636 3.21759 21.5247L3.97321 22.2803C4.03423 22.3413 4.13313 22.3413 4.19415 22.2803ZM3.97321 16.4928L3.21759 15.7372C3.15657 15.6762 3.15657 15.5772 3.21759 15.5162L3.97321 14.7606C4.03423 14.6996 4.13313 14.6996 4.19415 14.7606L4.94977 15.5162C5.01079 15.5772 5.01079 15.6762 4.94977 15.7372L4.19415 16.4928C4.13313 16.5538 4.03423 16.5538 3.97321 16.4928Z" fill="#87A0AF"/>
<path d="M6.58654 19.3868L5.83092 18.6312C5.7699 18.5701 5.7699 18.4712 5.83092 18.4102L6.58654 17.6546C6.64756 17.5936 6.74646 17.5936 6.80748 17.6546L7.56311 18.4102C7.62412 18.4712 7.62412 18.5701 7.56311 18.6312L6.80748 19.3868C6.74646 19.4478 6.64756 19.4478 6.58654 19.3868ZM6.80748 13.4967L7.56311 12.7411C7.62412 12.6801 7.62412 12.5812 7.56311 12.5201L6.80748 11.7645C6.74646 11.7035 6.64756 11.7035 6.58654 11.7645L5.83092 12.5201C5.7699 12.5812 5.7699 12.6801 5.83092 12.7411L6.58654 13.4967C6.64756 13.5577 6.74646 13.5577 6.80748 13.4967ZM6.80748 25.2768L7.56311 24.5212C7.62412 24.4601 7.62412 24.3612 7.56311 24.3002L6.80748 23.5446C6.74646 23.4836 6.64756 23.4836 6.58654 23.5446L5.83092 24.3002C5.7699 24.3612 5.7699 24.4601 5.83092 24.5212L6.58654 25.2768C6.64756 25.3378 6.74646 25.3378 6.80748 25.2768ZM11.9404 13.151L12.696 12.3954C12.757 12.3344 12.757 12.2354 12.696 12.1744L11.9404 11.4188C11.8794 11.3578 11.7804 11.3578 11.7194 11.4188L10.9638 12.1744C10.9028 12.2354 10.9028 12.3344 10.9638 12.3954L11.7194 13.151C11.7804 13.212 11.8794 13.212 11.9404 13.151ZM15.8045 13.151L15.0489 12.3954C14.9879 12.3344 14.9879 12.2354 15.0489 12.1744L15.8045 11.4188C15.8655 11.3578 15.9644 11.3578 16.0254 11.4188L16.7811 12.1744C16.8421 12.2354 16.8421 12.3344 16.7811 12.3954L16.0254 13.151C15.9644 13.212 15.8655 13.212 15.8045 13.151ZM19.8896 13.151L19.134 12.3954C19.0729 12.3344 19.0729 12.2354 19.134 12.1744L19.8896 11.4188C19.9506 11.3578 20.0495 11.3578 20.1105 11.4188L20.8662 12.1744C20.9272 12.2354 20.9272 12.3344 20.8662 12.3954L20.1105 13.151C20.0495 13.212 19.9506 13.212 19.8896 13.151ZM23.9747 13.151L23.219 12.3954C23.158 12.3344 23.158 12.2354 23.219 12.1744L23.9747 11.4188C24.0357 11.3578 24.1346 11.3578 24.1956 11.4188L24.9512 12.1744C25.0122 12.2354 25.0122 12.3344 24.9512 12.3954L24.1956 13.151C24.1346 13.212 24.0357 13.212 23.9747 13.151ZM28.0597 13.151L27.3041 12.3954C27.2431 12.3344 27.2431 12.2354 27.3041 12.1744L28.0597 11.4188C28.1208 11.3578 28.2197 11.3578 28.2807 11.4188L29.0363 12.1744C29.0973 12.2354 29.0973 12.3344 29.0363 12.3954L28.2807 13.151C28.2197 13.212 28.1208 13.212 28.0597 13.151ZM38.4122 17.6546L37.6565 18.4102C37.5955 18.4712 37.5955 18.5701 37.6565 18.6312L38.4122 19.3868C38.4732 19.4478 38.5721 19.4478 38.6331 19.3868L39.3887 18.6312C39.4497 18.5701 39.4497 18.4712 39.3887 18.4102L38.6331 17.6546C38.5721 17.5936 38.4732 17.5936 38.4122 17.6546ZM36.7159 14.7608L37.4715 15.5165C37.5326 15.5775 37.5326 15.6764 37.4715 15.7374L36.7159 16.493C36.6549 16.554 36.556 16.554 36.495 16.493L35.7394 15.7374C35.6783 15.6764 35.6783 15.5775 35.7394 15.5165L36.495 14.7608C36.556 14.6998 36.6549 14.6998 36.7159 14.7608ZM36.7159 20.5484L37.4715 21.3041C37.5326 21.3651 37.5326 21.464 37.4715 21.525L36.7159 22.2806C36.6549 22.3416 36.556 22.3416 36.495 22.2806L35.7394 21.525C35.6783 21.464 35.6783 21.3651 35.7394 21.3041L36.495 20.5484C36.556 20.4873 36.6549 20.4873 36.7159 20.5484ZM34.1026 17.6546L34.8582 18.4102C34.9192 18.4712 34.9192 18.5701 34.8582 18.6312L34.1026 19.3868C34.0415 19.4478 33.9426 19.4478 33.8816 19.3868L33.126 18.6312C33.065 18.5701 33.065 18.4712 33.126 18.4102L33.8816 17.6546C33.9426 17.5936 34.0415 17.5936 34.1026 17.6546ZM34.1026 23.5447L34.8582 24.3003C34.9192 24.3613 34.9192 24.4602 34.8582 24.5212L34.1026 25.2769C34.0415 25.3379 33.9426 25.3379 33.8816 25.2769L33.126 24.5212C33.065 24.4602 33.065 24.3613 33.126 24.3003L33.8816 23.5447C33.9426 23.4837 34.0415 23.4837 34.1026 23.5447ZM34.1026 11.7646L34.8582 12.5202C34.9192 12.5812 34.9192 12.6801 34.8582 12.7412L34.1026 13.4968C34.0415 13.5578 33.9426 13.5578 33.8816 13.4968L33.126 12.7412C33.065 12.6801 33.065 12.5812 33.126 12.5202L33.8816 11.7646C33.9426 11.7036 34.0415 11.7036 34.1026 11.7646Z" fill="#9BB9C3"/>
<path d="M29.375 16.502V26.6582H10.625V16.502C10.625 15.2075 11.6743 14.1582 12.9688 14.1582H27.0312C28.3257 14.1582 29.375 15.2076 29.375 16.502Z" fill="#E1EBF0"/>
<path d="M22.9822 15.4609H17.0178C14.3896 15.4609 12.2515 17.5991 12.2515 20.2273V26.6791C12.2515 27.0027 12.5137 27.2651 12.8374 27.2651H27.1625C27.4862 27.2651 27.7484 27.0027 27.7484 26.6791V20.2273C27.7485 17.5991 25.6104 15.4609 22.9822 15.4609ZM26.5766 26.0932H13.4233V20.2273C13.4233 18.2452 15.0358 16.6328 17.0178 16.6328H22.9822C24.9641 16.6328 26.5766 18.2453 26.5766 20.2273V26.0932Z" fill="#FFF5F5"/>
<path d="M24.9633 20.3594V25.9735H15.0369V20.3594C15.0369 19.0649 16.0862 18.0156 17.3806 18.0156H22.6196C23.914 18.0156 24.9633 19.0649 24.9633 20.3594Z" fill="#3F4A4A"/>
<path d="M20 34.2761C23.7565 34.2761 27.3213 35.2904 30.397 37.0885C30.0074 37.3261 29.609 37.5507 29.2025 37.7617C26.443 36.2777 23.3 35.448 20 35.448C16.7 35.448 13.5569 36.2777 10.7975 37.7617C10.3909 37.5506 9.99254 37.326 9.60293 37.0885C12.6786 35.2904 16.2434 34.2761 20 34.2761ZM3.07715 30.6641C3.33004 31.0645 3.59676 31.4554 3.8766 31.8359H36.1233C36.4032 31.4554 36.6699 31.0645 36.9228 30.6641H3.07715Z" fill="white"/>
<path d="M9.57031 0.585938V28.0128C9.57031 28.3364 9.30797 28.5987 8.98438 28.5987C8.66078 28.5987 8.39844 28.3364 8.39844 28.0128V3.125L8.66852 2.8175V1.2018L8.39844 0.78125V0.585938C8.39844 0.262344 8.66078 0 8.98438 0C9.30797 0 9.57031 0.262344 9.57031 0.585938ZM31.6406 0C31.317 0 31.0547 0.262344 31.0547 0.585938V0.78125L31.2882 1.16523V2.74102L31.0547 3.125V28.0128C31.0547 28.3364 31.317 28.5987 31.6406 28.5987C31.9642 28.5987 32.2266 28.3364 32.2266 28.0128V0.585938C32.2266 0.262344 31.9642 0 31.6406 0Z" fill="#E1EBF0"/>
<path d="M28.1599 25.1924C28.1599 25.6239 27.8102 25.9736 27.3787 25.9736H12.6213C12.1899 25.9736 11.8401 25.6239 11.8401 25.1924C11.8401 24.7609 12.1899 24.4111 12.6213 24.4111H27.3787C27.8102 24.4111 28.1599 24.7609 28.1599 25.1924Z" fill="#607882"/>
<path d="M14.0625 0.78125L13.0859 3.125H8.39844V0.78125H14.0625Z" fill="#FC7117"/>
<path d="M36.7188 0.78125L35.7422 3.125H31.0547V0.78125H36.7188Z" fill="#FC7117"/>
<path d="M33.0801 26.6582C33.0801 27.0897 32.7304 27.4395 32.2989 27.4395H7.70093C7.26944 27.4395 6.91968 27.0897 6.91968 26.6582C6.91968 26.2267 7.26944 25.877 7.70093 25.877H32.2988C32.7303 25.877 33.0801 26.2267 33.0801 26.6582Z" fill="#495959"/>
<path d="M36.875 28.125C36.875 28.5565 36.5252 28.9062 36.0938 28.9062H3.90625C3.47477 28.9062 3.125 28.5565 3.125 28.125C3.125 27.6935 3.47477 27.3438 3.90625 27.3438H36.0938C36.5252 27.3438 36.875 27.6935 36.875 28.125Z" fill="#3F4A4A"/>
</svg>
