<svg width="40" height="40" viewBox="0 0 40 40" fill="none" xmlns="http://www.w3.org/2000/svg">
<g clip-path="url(#clip0_21673_64613)">
<path d="M39.561 20.4388C39.561 27.3917 35.9334 33.4973 30.4676 36.9662C29.4708 37.5989 28.4326 38.0897 27.3244 38.5361C26.1512 39.0087 24.9021 39.4248 23.6291 39.6636C23.2315 39.7382 22.8298 39.8008 22.4241 39.8509C22.0907 39.8921 21.7547 39.8451 21.4162 39.8693C20.967 39.9015 20.5135 39.9982 20.0565 39.9995C20.0376 39.9997 20.0188 39.9997 20.0001 39.9997C19.8301 39.9997 19.6607 39.9975 19.4918 39.9932C19.2291 39.9865 18.9676 39.8948 18.7076 39.8779C18.3274 39.853 17.9502 39.8973 17.5762 39.851C17.1705 39.8009 16.7687 39.7383 16.3711 39.6637C15.3943 39.4805 14.443 39.1448 13.5232 38.8221C12.1119 38.3271 10.7747 37.7547 9.5323 36.9662C4.06667 33.4971 0.439209 27.3916 0.439209 20.4388C0.439209 9.63562 9.19689 0.87793 20.0001 0.87793C30.8033 0.87793 39.561 9.63562 39.561 20.4388Z" fill="#333333"/>
<path d="M26.7437 36.8866L27.3562 38.5695C26.3019 38.9977 25.2018 39.3366 24.0653 39.5769L25.0444 36.8866L22.8335 30.8122L20.6225 36.8866L21.7282 39.9245C21.1772 39.9727 20.6196 39.9981 20.0563 39.9997L19.7729 39.221L19.4918 39.9933C18.9328 39.979 18.3797 39.9413 17.8333 39.8811L18.9232 36.8866L16.7123 30.8122L14.5013 36.8866L15.4399 39.4655C14.3373 39.2022 13.2709 38.8455 12.2497 38.4043L12.8021 36.8866L10.4438 30.4074L11.9444 29.8613L13.6518 34.5523L15.3591 29.8613L16.7123 30.3539L18.0654 29.8613L19.7728 34.5523L21.4802 29.8613L22.8333 30.3539L24.1865 29.8613L25.8938 34.5523L27.6012 29.8613L29.1017 30.4074L26.7437 36.8866Z" fill="#738300"/>
<path d="M30.0312 35.7675L30.4674 36.9661C29.4706 37.5988 28.4128 38.1437 27.3045 38.5901L28.3319 35.7674L26.1209 29.693L23.91 35.7674L25.1964 39.3018C24.6821 39.4432 24.1592 39.564 23.6288 39.6635L23.0603 38.1018L22.4238 39.8508C21.848 39.922 21.2646 39.9681 20.6745 39.9881L22.2108 35.7674L19.9999 29.6932L17.789 35.7676L19.3252 39.9882C18.7351 39.9683 18.1516 39.9221 17.5759 39.851L16.9394 38.1019L16.3709 39.6637C15.8405 39.5642 15.3177 39.4432 14.8033 39.3019L16.0897 35.7676L13.8788 29.6932L11.6678 35.7676L12.6952 38.5902C11.587 38.1438 10.5291 37.5989 9.53227 36.9663L9.96852 35.7676L7.61035 29.2883L9.11087 28.7422L10.8183 33.4331L12.5256 28.7422L13.8788 29.2347L15.232 28.7422L16.9394 33.4331L18.6468 28.7422L19.9999 29.2347L21.353 28.7422L23.0604 33.4331L24.7678 28.7422L26.1209 29.2347L27.4741 28.7422L29.1815 33.4331L30.8889 28.7422L32.3894 29.2883L30.0312 35.7675Z" fill="#D2ED11"/>
<path d="M34.2662 25.8963C28.342 31.8204 18.7371 31.8204 12.813 25.8963C6.88884 19.9721 6.88884 10.3673 12.813 4.44311C18.7371 -1.48104 28.342 -1.48104 34.2662 4.44311C40.1903 10.3673 40.1902 19.9722 34.2662 25.8963Z" fill="#EE4424"/>
<path d="M34.2663 25.8965C32.2303 27.9325 29.7596 29.2688 27.1529 29.9053C24.5462 29.2688 22.0755 27.9325 20.0395 25.8965C14.1154 19.9724 14.1154 10.3675 20.0395 4.44335C22.0756 2.40735 24.5463 1.07114 27.1529 0.43457C29.7596 1.07114 32.2304 2.40735 34.2663 4.44335C40.1904 10.3675 40.1904 19.9725 34.2663 25.8965Z" fill="#FC7117"/>
<path d="M26.9269 18.5573C26.6186 18.8656 26.3272 19.1847 26.0528 19.5132C29.0407 21.8279 32.2379 23.5711 35.4172 24.6083C35.0622 25.0539 34.6786 25.4842 34.2662 25.8965C34.2647 25.8981 34.2632 25.8995 34.2617 25.9009C31.1379 24.7915 28.0193 23.051 25.0991 20.7933C23.2096 23.6496 22.4478 27.0374 22.8133 30.3223C22.2711 30.2965 21.7301 30.2417 21.1927 30.158C20.8707 26.5674 21.7568 22.8878 23.8511 19.7867C22.9712 19.0468 22.1127 18.2596 21.2813 17.4282C20.45 16.5968 19.6627 15.7383 18.9229 14.8585C15.8218 16.9527 12.1422 17.8388 8.55152 17.5168C8.46785 16.9794 8.413 16.4384 8.38721 15.8962C11.6722 16.2617 15.0599 15.4999 17.9162 13.6105C15.6586 10.6903 13.9181 7.57167 12.8086 4.44784C12.81 4.44632 12.8116 4.44488 12.813 4.44337C13.2254 4.03099 13.6556 3.64736 14.1012 3.29239C15.1385 6.47155 16.8817 9.66884 19.1964 12.6568C19.5249 12.3824 19.8439 12.091 20.1522 11.7826C23.3614 8.57343 24.7325 4.21175 24.2658 0.0175781C24.808 0.0433666 25.349 0.0982169 25.8864 0.18189C26.2948 4.73606 24.7597 9.43323 21.2813 12.9117C20.933 13.26 20.5724 13.5887 20.2011 13.8981C20.895 14.7191 21.6324 15.5211 22.4104 16.2991C23.1883 17.0771 23.9904 17.8145 24.8114 18.5084C25.1207 18.137 25.4495 17.7765 25.7978 17.4282C29.2762 13.9497 33.9735 12.4147 38.5276 12.8232C38.6113 13.3606 38.666 13.9017 38.6919 14.4438C34.4978 13.977 30.136 15.3482 26.9269 18.5573Z" fill="#D63D24"/>
<path d="M34.5441 30.971H5.64194C4.98054 30.971 4.44434 30.4348 4.44434 29.7734V28.975C4.44434 28.3136 4.98054 27.7773 5.64194 27.7773H34.5441C35.2055 27.7773 35.7418 28.3136 35.7418 28.975V29.7734C35.7418 30.4348 35.2055 30.971 34.5441 30.971Z" fill="#ECF6A9"/>
<path d="M34.4512 31.138H7.94419C7.28279 31.138 6.74658 30.6017 6.74658 29.9404V29.1419C6.74658 28.4805 7.28279 27.9443 7.94419 27.9443H34.4512C35.1126 27.9443 35.6488 28.4805 35.6488 29.1419V29.9404C35.6488 30.6017 35.1126 31.138 34.4512 31.138Z" fill="#ECF6A9"/>
</g>
<defs>
<clipPath id="clip0_21673_64613">
<rect width="40" height="40" fill="white"/>
</clipPath>
</defs>
</svg>
