<svg width="40" height="40" viewBox="0 0 40 40" fill="none" xmlns="http://www.w3.org/2000/svg">
<path d="M19.9937 28.1055H32.7881C35.0913 27.2168 37.2109 25.9018 39.0605 24.4285C39.0743 24.3443 39.5098 22.6097 39.5098 20.2266C39.5098 9.31626 30.6652 0.47168 19.7549 0.47168C12.1527 0.47168 7.47009 4.75946 7.45724 4.76667C7.16385 6.12092 6.65356 8.0863 6.65356 9.52839C6.65356 18.0763 12.3012 25.3541 19.9937 28.1055Z" fill="#333333"/>
<path d="M37.8752 28.1057C38.3837 26.9365 38.7835 25.7069 39.0605 24.4287C36.9181 26.1351 34.4129 27.4051 31.6797 28.1057H37.8752Z" fill="#333333"/>
<path d="M21.8415 28.1053C13.3123 25.9184 7.00786 18.1797 7.00786 8.9685C7.00786 7.52642 7.1638 6.12092 7.45719 4.7666C7.45672 4.76699 7.45633 4.76731 7.45586 4.7677C2.91262 8.38714 0 13.9663 0 20.2265C0 22.9408 0.548608 25.5266 1.5391 27.8807L4.85872 28.1674L21.8415 28.1053Z" fill="#333333"/>
<path d="M19.5409 27.8819L11.3533 38.1116C13.9028 39.3115 16.7505 39.9822 19.7549 39.9822C27.8893 39.9822 34.9627 35.038 37.9703 27.8818H19.5409V27.8819Z" fill="#D2ED11"/>
<path d="M1.53809 27.8818C2.68255 30.6022 4.41889 33.0122 6.5855 34.9512L18.5178 27.8818H1.53809Z" fill="#D2ED11"/>
<path d="M11.3538 38.1102L31.1498 21.4967L27.6236 17.2949L6.58569 34.9506C8.00537 36.2213 9.60974 37.2894 11.3538 38.1102Z" fill="white"/>
<path d="M39.1107 11.037L35.9498 5.60637C33.6148 2.94224 30.4316 1.039 26.834 0.326377L20.5093 0.323242C18.8677 0.645465 17.3143 1.21366 15.8891 1.98787C14.652 2.6599 14.0608 4.773 13.8747 7.6759C13.0114 21.1436 28.361 29.4283 39.2043 21.3941C39.7304 19.7745 40.0102 18.0439 39.9996 16.2464C39.9889 14.4251 39.6767 12.6729 39.1107 11.037Z" fill="#252525"/>
<path d="M31.4362 23.356C22.4185 23.356 15.1083 16.0458 15.1083 7.02808C15.1083 5.26589 15.3886 3.56945 15.9051 1.97949C13.9894 3.01739 12.3048 4.42719 10.9479 6.11212L8.22697 11.0349C7.6547 12.6997 7.34399 14.4861 7.34399 16.3452C7.34399 18.2042 7.6547 19.9907 8.22697 21.6555L11.3438 27.0515C13.6792 29.7384 16.8785 31.6544 20.5093 32.367H26.8345C30.4456 31.6582 33.6297 29.7587 35.9615 27.0944L39.1157 21.6552C39.1456 21.5684 39.1747 21.4812 39.2031 21.3938C36.8934 22.6452 34.2478 23.356 31.4362 23.356Z" fill="#252525"/>
<path d="M18.2054 4.31782C17.9582 4.74599 17.9582 5.27352 18.2054 5.70169L20.3395 9.398C20.5868 9.82617 21.0436 10.0899 21.538 10.0899H25.8061C26.3005 10.0899 26.7573 9.82617 27.0046 9.398L29.1387 5.70169C29.3859 5.27352 29.3859 4.74599 29.1387 4.31782L26.8342 0.326322C25.811 0.125169 24.7543 0.0175781 23.6721 0.0175781C22.5899 0.0175781 21.5331 0.125169 20.51 0.326322L18.2054 4.31782Z" fill="white"/>
<path d="M35.9604 5.59766H31.3212C30.8268 5.59766 30.37 5.86142 30.1227 6.28959L27.9886 9.9859C27.7414 10.4141 27.7414 10.9416 27.9886 11.3698L30.1227 15.0661C30.37 15.4942 30.8268 15.758 31.3212 15.758H35.5893C36.0837 15.758 36.5406 15.4942 36.7878 15.0661L39.1144 11.0363C38.4194 9.01445 37.3391 7.17264 35.9604 5.59766Z" fill="white"/>
<path d="M36.7878 17.6255C36.5406 17.1974 36.0837 16.9336 35.5893 16.9336H31.3212C30.8268 16.9336 30.3699 17.1974 30.1227 17.6255L27.9886 21.3218C27.7414 21.75 27.7414 22.2775 27.9886 22.7057L28.1764 23.0309L34.3628 25.2091L39.0193 21.4905L36.7878 17.6255Z" fill="white"/>
<path d="M28.1763 23.0306L30.1225 26.4017C30.3698 26.8299 30.8266 27.0936 31.321 27.0936H35.9602C37.3388 25.5186 38.4191 23.6768 39.1142 21.655L39.0191 21.4902C36.7529 22.6809 34.1737 23.3564 31.436 23.3564C30.3198 23.3564 29.2297 23.244 28.1763 23.0306Z" fill="white"/>
<path d="M29.1387 28.3737C29.3859 27.9455 29.3859 27.418 29.1387 26.9898L27.0046 23.2935C26.7573 22.8653 26.3005 22.6016 25.8061 22.6016H21.538C21.0436 22.6016 20.5868 22.8653 20.3395 23.2935L18.2054 26.9898C17.9582 27.418 17.9582 27.9455 18.2054 28.3737L20.5099 32.3651C21.5331 32.5662 22.5898 32.6738 23.672 32.6738C24.7542 32.6738 25.8109 32.5662 26.8341 32.3651L29.1387 28.3737Z" fill="white"/>
<path d="M11.3838 27.0938H15.8125C16.4371 27.0938 17.0143 26.7606 17.3266 26.2197L19.2503 22.888C19.5626 22.347 19.5626 21.6805 19.2503 21.1395L17.3266 17.8078C17.0143 17.2669 16.4371 16.9336 15.8125 16.9336H11.9653C11.3406 16.9336 10.7634 17.2669 10.4511 17.8078L8.22974 21.6553C8.9248 23.677 10.0051 25.5189 11.3838 27.0938Z" fill="white"/>
<path d="M7.98812 20.8984L7.98804 20.8985C7.98976 20.9044 7.99171 20.9102 7.99343 20.9161C7.99171 20.9102 7.98983 20.9044 7.98812 20.8984Z" fill="white"/>
<path d="M19.3553 11.3698C19.6025 10.9416 19.6025 10.4141 19.3553 9.9859L17.2212 6.28959C16.974 5.86142 16.5171 5.59766 16.0228 5.59766H15.171L14.4863 8.36922L14.6934 12.8553L17.2212 15.0661L19.3553 11.3698Z" fill="white"/>
<path d="M17.2213 15.0661C15.8767 12.6931 15.1083 9.95079 15.1083 7.02861C15.1083 6.54638 15.13 6.06924 15.1712 5.59766H12.0284C11.6093 5.59766 11.2128 5.78776 10.95 6.11421C9.77745 7.57033 8.85005 9.23159 8.22974 11.0363L10.4511 14.8838C10.7635 15.4248 11.3407 15.758 11.9653 15.758H16.0229C16.5173 15.758 16.9741 15.4942 17.2213 15.0661Z" fill="white"/>
</svg>
