<svg width="40" height="40" viewBox="0 0 40 40" fill="none" xmlns="http://www.w3.org/2000/svg">
<path d="M40 20C40 21.027 39.9224 22.0351 39.773 23.0204C39.458 25.102 38.822 27.0791 37.9167 28.898C35.9927 32.7641 32.8555 35.9192 29.0024 37.8645C26.2963 39.2302 23.2384 40 20 40C16.76 40 13.7013 39.2302 10.9943 37.8629C6.80328 35.7453 3.45797 32.1959 1.60328 27.858C0.845703 26.0866 0.336328 24.1845 0.119219 22.1943C0.04 21.4734 0 20.7412 0 20C0 8.9543 8.9543 0 20 0C28.4833 0 35.733 5.28164 38.64 12.7355C39.3584 14.578 39.8114 16.5527 39.9527 18.6131C39.9837 19.071 40 19.5339 40 20Z" fill="#333333"/>
<path d="M18.0018 20.5565C18.0018 22.3589 17.7634 24.0504 17.3462 25.514C16.9291 26.9769 16.3332 28.2111 15.6181 29.0993C14.743 29.3328 13.845 29.4496 12.9471 29.4496C12.0491 29.4496 11.1511 29.3329 10.2761 29.0993C8.84418 27.323 7.8916 24.1614 7.8916 20.5565C7.8916 17.5091 8.57238 14.7785 9.64754 12.9336C9.8859 12.5238 10.0868 12.0936 10.2312 11.6422L10.2753 11.5042C10.5096 10.7989 10.681 10.0781 10.7871 9.34911C10.8671 8.80786 10.9121 8.26255 10.9202 7.71645C10.9268 7.37934 10.9186 7.04216 10.8973 6.70583C10.863 6.15887 10.7936 5.61356 10.6883 5.07317C10.6524 4.89028 10.6124 4.70747 10.5683 4.52544L10.472 4.12622C10.4263 3.93763 10.3724 3.75067 10.3153 3.56458C10.2369 3.30903 10.1936 3.03802 10.1936 2.75723C10.1936 1.18255 11.5161 -0.0835468 13.1104 0.00864072C14.4801 0.0878595 15.5993 1.19559 15.6932 2.56536C15.7161 2.90333 15.6777 3.22903 15.5879 3.53348C15.53 3.72942 15.4712 3.92536 15.423 4.12372L15.3243 4.53763C15.2818 4.71559 15.2426 4.89434 15.2083 5.07317C15.1022 5.61356 15.032 6.15887 14.9977 6.70583C14.9764 7.04216 14.9691 7.37927 14.9748 7.71645C14.983 8.26255 15.0279 8.80786 15.1079 9.34911C15.2139 10.074 15.3838 10.7915 15.6156 11.4928L15.6621 11.6389C15.8066 12.0928 16.0082 12.5246 16.2475 12.936C17.3218 14.781 18.0018 17.51 18.0018 20.5565Z" fill="white"/>
<path d="M12.9471 29.4499C12.0491 29.4499 11.1511 29.3332 10.2761 29.0997C8.84418 27.3233 7.8916 24.1617 7.8916 20.5568C7.8916 17.5094 8.57238 14.7788 9.64754 12.9339C9.8859 12.5241 10.0868 12.0939 10.2312 11.6425L10.2753 11.5045C10.5096 10.7992 10.681 10.0784 10.7871 9.34941C10.8671 8.80816 10.9121 8.26285 10.9202 7.71676C10.9268 7.37965 10.9186 7.04246 10.8973 6.70613C10.863 6.15918 10.7936 5.61387 10.6883 5.07348C10.6524 4.89059 10.6124 4.70777 10.5683 4.52574L10.472 4.12652C10.4263 3.93793 10.3724 3.75098 10.3153 3.56488C10.2369 3.30934 10.1936 3.03832 10.1936 2.75754C10.1936 1.25145 11.4018 0.0285547 12.9022 0.00488281C11.9659 0.0424609 11.2132 1.26043 11.2132 2.75754C11.2132 3.03832 11.2402 3.30941 11.29 3.56488C11.3259 3.75098 11.3593 3.93793 11.3887 4.12652L11.4491 4.52574C11.4768 4.70777 11.5021 4.89067 11.5242 5.07348C11.5911 5.61387 11.6344 6.15918 11.6564 6.70613C11.6695 7.04246 11.6744 7.37957 11.6704 7.71676C11.6654 8.26285 11.6369 8.80816 11.5871 9.34941C11.5201 10.0784 11.4115 10.7992 11.2646 11.5045L11.2369 11.6425C11.1455 12.0939 11.0189 12.5241 10.8696 12.9339C10.192 14.7788 9.76348 17.5094 9.76348 20.5568C9.76348 24.1617 10.3635 27.3233 11.2647 29.0997C11.8157 29.3332 12.3814 29.4499 12.9471 29.4499Z" fill="#DCE5E0"/>
<path d="M15.2085 5.07324C15.1024 5.61363 15.0321 6.15895 14.9978 6.7059H10.8975C10.8632 6.15895 10.7938 5.61363 10.6885 5.07324C10.6885 5.07324 15.2085 5.07324 15.2085 5.07324Z" fill="#FF525D"/>
<path d="M15.1079 9.34945H10.7871C10.8671 8.8082 10.912 8.26289 10.9202 7.7168H14.9748C14.983 8.26297 15.0279 8.8082 15.1079 9.34945Z" fill="#FF525D"/>
<path d="M10.8975 6.7059C10.8632 6.15895 10.7938 5.61363 10.6885 5.07324H11.5244C11.5914 5.61363 11.6346 6.15895 11.6567 6.7059H10.8975Z" fill="#EF4152"/>
<path d="M11.6704 7.7168C11.6655 8.26289 11.637 8.8082 11.5871 9.34945H10.7871C10.8671 8.8082 10.912 8.26289 10.9202 7.7168H11.6704Z" fill="#EF4152"/>
<path d="M32.3157 20.5565C32.3157 22.3589 32.0774 24.0504 31.6602 25.514C31.2431 26.9769 30.6471 28.2111 29.932 29.0993C29.057 29.3328 28.159 29.4496 27.261 29.4496C26.3631 29.4496 25.4651 29.3329 24.59 29.0993C23.1581 27.323 22.2056 24.1614 22.2056 20.5565C22.2056 17.5091 22.8863 14.7785 23.9615 12.9336C24.1999 12.5238 24.4007 12.0936 24.5452 11.6422L24.5892 11.5042C24.8235 10.7989 24.9949 10.0781 25.101 9.34911C25.181 8.80786 25.226 8.26255 25.2341 7.71645C25.2406 7.37934 25.2324 7.04216 25.2112 6.70583C25.1769 6.15887 25.1075 5.61356 25.0022 5.07317C24.9663 4.89028 24.9263 4.70747 24.8822 4.52544L24.7859 4.12622C24.7402 3.93763 24.6863 3.75067 24.6292 3.56458C24.5508 3.30903 24.5075 3.03802 24.5075 2.75723C24.5075 1.18255 25.8299 -0.0835468 27.4242 0.00864072C28.794 0.0878595 29.9132 1.19559 30.0071 2.56536C30.03 2.90333 29.9916 3.22903 29.9018 3.53348C29.8438 3.72942 29.7851 3.92536 29.7369 4.12372L29.6381 4.53763C29.5957 4.71559 29.5565 4.89434 29.5222 5.07317C29.4161 5.61356 29.3459 6.15887 29.3116 6.70583C29.2903 7.04216 29.283 7.37927 29.2887 7.71645C29.2968 8.26255 29.3417 8.80786 29.4217 9.34911C29.5278 10.074 29.6977 10.7915 29.9295 11.4928L29.976 11.6389C30.1205 12.0928 30.3221 12.5246 30.5613 12.936C31.6357 14.781 32.3157 17.51 32.3157 20.5565Z" fill="white"/>
<path d="M27.261 29.4499C26.3631 29.4499 25.4651 29.3332 24.59 29.0997C23.1581 27.3233 22.2056 24.1617 22.2056 20.5568C22.2056 17.5094 22.8863 14.7788 23.9615 12.9339C24.1999 12.5241 24.4007 12.0939 24.5452 11.6425L24.5892 11.5045C24.8235 10.7992 24.9949 10.0784 25.101 9.34941C25.181 8.80816 25.226 8.26285 25.2341 7.71676C25.2406 7.37965 25.2324 7.04246 25.2112 6.70613C25.1769 6.15918 25.1075 5.61387 25.0022 5.07348C24.9663 4.89059 24.9263 4.70777 24.8822 4.52574L24.7859 4.12652C24.7402 3.93793 24.6863 3.75098 24.6292 3.56488C24.5508 3.30934 24.5075 3.03832 24.5075 2.75754C24.5075 1.25145 25.7156 0.0285547 27.2161 0.00488281C26.2798 0.0424609 25.5271 1.26043 25.5271 2.75754C25.5271 3.03832 25.5541 3.30941 25.6038 3.56488C25.6398 3.75098 25.6732 3.93793 25.7026 4.12652L25.763 4.52574C25.7907 4.70777 25.816 4.89067 25.8381 5.07348C25.905 5.61387 25.9483 6.15918 25.9703 6.70613C25.9834 7.04246 25.9883 7.37957 25.9842 7.71676C25.9793 8.26285 25.9508 8.80816 25.901 9.34941C25.834 10.0784 25.7254 10.7992 25.5785 11.5045L25.5508 11.6425C25.4594 12.0939 25.3328 12.5241 25.1835 12.9339C24.5059 14.7788 24.0774 17.5094 24.0774 20.5568C24.0774 24.1617 24.6774 27.3233 25.5786 29.0997C26.1295 29.3332 26.6953 29.4499 27.261 29.4499Z" fill="#DCE5E0"/>
<path d="M29.5224 5.07324C29.4163 5.61363 29.3461 6.15895 29.3118 6.7059H25.2114C25.1771 6.15895 25.1078 5.61363 25.0024 5.07324H29.5224Z" fill="#FF525D"/>
<path d="M29.4219 9.34945H25.1011C25.1811 8.8082 25.226 8.26289 25.2341 7.7168H29.2888C29.2969 8.26297 29.3419 8.8082 29.4219 9.34945Z" fill="#FF525D"/>
<path d="M25.2114 6.7059C25.1771 6.15895 25.1078 5.61363 25.0024 5.07324H25.8384C25.9053 5.61363 25.9486 6.15895 25.9706 6.7059H25.2114Z" fill="#EF4152"/>
<path d="M25.9844 7.7168C25.9794 8.26289 25.9509 8.8082 25.9011 9.34945H25.1011C25.1811 8.8082 25.226 8.26289 25.2341 7.7168H25.9844Z" fill="#EF4152"/>
<path d="M25.0545 21.5965C25.0545 23.3989 24.8161 25.0904 24.3989 26.5541C23.9818 28.017 23.3859 29.2512 22.6708 30.1394C21.7957 30.3728 20.8978 30.4896 19.9998 30.4896C19.1018 30.4896 18.2039 30.3729 17.3288 30.1394C15.8969 28.3631 14.9443 25.2014 14.9443 21.5965C14.9443 18.5492 15.6251 15.8185 16.7003 13.9736C16.9386 13.5638 17.1395 13.1336 17.2839 12.6822L17.328 12.5442C17.5623 11.8389 17.7337 11.1181 17.8399 10.3892C17.9199 9.8479 17.9648 9.30259 17.9729 8.7565C17.9795 8.41939 17.9713 8.0822 17.95 7.74587C17.9157 7.19892 17.8464 6.6536 17.7411 6.11321C17.7051 5.93032 17.6651 5.74751 17.6211 5.56548L17.5247 5.16626C17.479 4.97767 17.4251 4.79071 17.368 4.60462C17.2896 4.34907 17.2464 4.07806 17.2464 3.79727C17.2464 2.22259 18.5688 0.956492 20.1631 1.04868C21.5329 1.1279 22.6521 2.23563 22.746 3.6054C22.7689 3.94337 22.7304 4.26907 22.6407 4.57352C22.5827 4.76946 22.5239 4.9654 22.4757 5.16376L22.377 5.57767C22.3346 5.75563 22.2954 5.93438 22.2611 6.11321C22.155 6.6536 22.0847 7.19892 22.0504 7.74587C22.0292 8.0822 22.0218 8.41931 22.0275 8.7565C22.0357 9.30259 22.0806 9.8479 22.1606 10.3892C22.2667 11.1141 22.4365 11.8316 22.6683 12.5328L22.7149 12.6789C22.8593 13.1328 23.061 13.5646 23.3002 13.976C24.3745 15.821 25.0545 18.55 25.0545 21.5965Z" fill="white"/>
<path d="M19.9998 30.4899C19.1018 30.4899 18.2039 30.3732 17.3288 30.1397C15.8969 28.3634 14.9443 25.2017 14.9443 21.5968C14.9443 18.5495 15.6251 15.8188 16.7003 13.9739C16.9386 13.5641 17.1395 13.1339 17.2839 12.6825L17.328 12.5445C17.5623 11.8392 17.7337 11.1184 17.8399 10.3895C17.9199 9.84821 17.9648 9.30289 17.9729 8.7568C17.9795 8.41969 17.9713 8.0825 17.95 7.74618C17.9157 7.19922 17.8464 6.65391 17.7411 6.11352C17.7051 5.93063 17.6651 5.74781 17.6211 5.56578L17.5247 5.16656C17.479 4.97797 17.4251 4.79102 17.368 4.60492C17.2896 4.34938 17.2464 4.07836 17.2464 3.79758C17.2464 2.29148 18.4545 1.06859 19.955 1.04492C19.0186 1.0825 18.266 2.30047 18.266 3.79758C18.266 4.07836 18.2929 4.34945 18.3427 4.60492C18.3786 4.79102 18.4121 4.97797 18.4414 5.16656L18.5018 5.56578C18.5296 5.74781 18.5549 5.93071 18.5769 6.11352C18.6439 6.65391 18.6871 7.19922 18.7092 7.74618C18.7222 8.0825 18.7271 8.41961 18.7231 8.7568C18.7182 9.30289 18.6896 9.84821 18.6398 10.3895C18.5729 11.1184 18.4643 11.8392 18.3174 12.5445L18.2896 12.6825C18.1982 13.1339 18.0717 13.5641 17.9223 13.9739C17.2447 15.8188 16.8162 18.5495 16.8162 21.5968C16.8162 25.2017 17.4162 28.3634 18.3175 30.1397C18.8684 30.3732 19.4341 30.4899 19.9998 30.4899Z" fill="#DCE5E0"/>
<path d="M22.2612 6.11328C22.1551 6.65367 22.0849 7.19898 22.0506 7.74594H17.9502C17.9159 7.19898 17.8465 6.65367 17.7412 6.11328H22.2612Z" fill="#FF525D"/>
<path d="M22.1606 10.3895H17.8398C17.9198 9.84824 17.9648 9.30293 17.9729 8.75684H22.0276C22.0358 9.30301 22.0806 9.84824 22.1606 10.3895Z" fill="#FF525D"/>
<path d="M17.9502 7.74594C17.9159 7.19898 17.8465 6.65367 17.7412 6.11328H18.5771C18.6441 6.65367 18.6874 7.19898 18.7094 7.74594H17.9502Z" fill="#EF4152"/>
<path d="M18.7231 8.75684C18.7182 9.30293 18.6897 9.84824 18.6398 10.3895H17.8398C17.9198 9.84824 17.9648 9.30293 17.9729 8.75684H18.7231Z" fill="#EF4152"/>
<path d="M30.5876 34.1441C30.2953 35.487 29.7516 36.7465 29.0023 37.8641C26.2962 39.2299 23.2382 39.9997 19.9998 39.9997C16.7598 39.9997 13.7011 39.2299 10.9941 37.8626C10.0635 36.4748 9.44148 34.8503 9.23741 33.0765C8.55171 27.132 12.8154 21.7581 18.7591 21.0732C21.0537 20.8087 23.2635 21.2822 25.1509 22.3042C28.1541 23.9303 30.3419 26.9466 30.7623 30.5965C30.9035 31.8151 30.8349 33.0103 30.5876 34.1441Z" fill="#A4B815"/>
<path d="M26.6636 36.8853C22.6677 39.6453 17.191 38.6429 14.4317 34.6461C11.6717 30.6502 12.6742 25.1734 16.671 22.4142C17.724 21.6869 18.8807 21.2208 20.0628 21.002C23.4775 21.0248 26.8269 22.6575 28.9151 25.6812C29.6122 26.6902 30.1143 27.7767 30.4294 28.8942C30.6889 31.9351 29.3559 35.0265 26.6636 36.8853Z" fill="#D2ED11"/>
<path d="M17.5475 25.4925C18.2358 25.4925 18.7938 24.9345 18.7938 24.2463C18.7938 23.558 18.2358 23 17.5475 23C16.8592 23 16.3013 23.558 16.3013 24.2463C16.3013 24.9345 16.8592 25.4925 17.5475 25.4925Z" fill="black"/>
<path d="M15.591 29.1634C16.2793 29.1634 16.8372 28.6054 16.8372 27.9171C16.8372 27.2289 16.2793 26.6709 15.591 26.6709C14.9027 26.6709 14.3447 27.2289 14.3447 27.9171C14.3447 28.6054 14.9027 29.1634 15.591 29.1634Z" fill="black"/>
<path d="M20.9323 27.5364C21.6206 27.5364 22.1785 26.9785 22.1785 26.2902C22.1785 25.6019 21.6206 25.0439 20.9323 25.0439C20.244 25.0439 19.686 25.6019 19.686 26.2902C19.686 26.9785 20.244 27.5364 20.9323 27.5364Z" fill="black"/>
</svg>
