<svg width="40" height="40" viewBox="0 0 40 40" fill="none" xmlns="http://www.w3.org/2000/svg">
<path d="M39.9999 20.2348C39.9999 20.3631 39.9982 20.4922 39.9958 20.6197C39.9829 21.2925 39.9369 21.958 39.8587 22.6123C39.6965 23.9628 39.3981 25.2713 38.9785 26.5234C38.2017 28.8387 37.0085 30.9629 35.487 32.8063C35.2958 33.0386 35.0989 33.2661 34.8973 33.4888C34.7182 33.6872 34.5351 33.8817 34.3479 34.0721C34.1922 34.2318 34.0333 34.3883 33.8711 34.5424C33.5282 34.8699 33.1725 35.1846 32.8062 35.4871C30.7837 37.1562 28.4232 38.4308 25.8425 39.1933C24.0652 39.7184 22.1831 40 20.2348 40C14.9007 40 10.0611 37.8872 6.50574 34.4536C5.54332 33.5235 4.67527 32.4981 3.91691 31.3904C2.70762 29.6253 1.77746 27.6536 1.19012 25.5392C0.720586 23.8515 0.469727 22.0726 0.469727 20.2349C0.469727 19.1079 0.564102 18.0035 0.746445 16.9281C0.843242 16.348 0.96668 15.7761 1.11348 15.2138C1.4023 14.1102 1.78387 13.0445 2.2502 12.0247C2.26152 12.0014 2.27199 11.9772 2.28324 11.9537C2.30019 11.9158 2.31793 11.8779 2.33566 11.8407C2.43652 11.6261 2.54059 11.4139 2.64949 11.2034C2.9391 10.6395 3.25535 10.0917 3.59738 9.5609C3.70707 9.38825 3.82082 9.21887 3.93621 9.0502C4.08785 8.82996 4.24277 8.61371 4.40254 8.39996C4.89144 7.74809 5.41902 7.12692 5.98293 6.54121C6.16441 6.3516 6.35082 6.16528 6.54035 5.98293C7.12683 5.41903 7.74801 4.89145 8.39988 4.40254C8.61363 4.24277 8.83066 4.08707 9.0509 3.93707C9.21793 3.8209 9.3873 3.70793 9.55918 3.59824C10.09 3.25621 10.6386 2.93996 11.2025 2.64949C11.4131 2.54137 11.6261 2.43652 11.8407 2.33566C11.8778 2.31793 11.9149 2.3002 11.9528 2.28324C11.9761 2.27277 11.9996 2.26145 12.0229 2.25098C13.0426 1.78465 14.1092 1.40231 15.2136 1.11348C16.8165 0.693164 18.4994 0.469727 20.2347 0.469727C25.6116 0.469727 30.486 2.61645 34.0493 6.09918C34.9561 6.98496 35.7774 7.95707 36.5002 9.00262C37.115 9.89082 37.6578 10.8315 38.1225 11.8165C39.3271 14.3707 39.9999 17.224 39.9999 20.2348Z" fill="#333333"/>
<path d="M39.8588 22.6123C39.6966 23.9628 39.3982 25.2713 38.9786 26.5234L6.50582 34.4536C5.5434 33.5235 4.67535 32.4981 3.91699 31.3904L39.8588 22.6123Z" fill="white"/>
<path d="M20.8392 25.3956C20.685 25.5497 20.4351 25.5497 20.2809 25.3956L1.71839 6.83307C1.56425 6.67893 1.56425 6.429 1.71839 6.27479C1.87253 6.12064 2.12245 6.12064 2.27667 6.27479L20.8392 24.8373C20.9932 24.9915 20.9934 25.2414 20.8392 25.3956Z" fill="#A1A1AA"/>
<path d="M26.1795 17.0682C26.0254 17.2223 25.7755 17.2223 25.6212 17.0682L10.0453 1.49225C9.89115 1.33811 9.89115 1.08818 10.0453 0.933965C10.1994 0.779824 10.4494 0.779824 10.6036 0.933965L26.1795 16.5099C26.3336 16.6641 26.3337 16.914 26.1795 17.0682Z" fill="#A1A1AA"/>
<path d="M17.0679 26.1795C16.9137 26.3336 16.6638 26.3336 16.5096 26.1795L0.933721 10.6036C0.77958 10.4495 0.77958 10.1995 0.933721 10.0453C1.08786 9.8911 1.33778 9.89118 1.492 10.0453L17.0679 25.6213C17.222 25.7753 17.222 26.0252 17.0679 26.1795Z" fill="#A1A1AA"/>
<path d="M25.3951 20.8389C25.2409 20.9931 24.991 20.9931 24.8368 20.8389L6.2743 2.27643C6.12016 2.12229 6.12016 1.87236 6.2743 1.71814C6.42844 1.564 6.67836 1.564 6.83258 1.71814L25.3951 20.2807C25.5492 20.4348 25.5492 20.6848 25.3951 20.8389Z" fill="#A1A1AA"/>
<path d="M23.9125 23.9133C23.7584 24.0674 23.5085 24.0674 23.3542 23.9133L3.20081 3.75982C3.04667 3.60568 3.04667 3.35576 3.20081 3.20154C3.35495 3.0474 3.60487 3.0474 3.75909 3.20154L23.9126 23.3551C24.0667 23.5091 24.0667 23.7591 23.9125 23.9133Z" fill="#A1A1AA"/>
<path d="M18.8651 4.25096L4.25055 18.8656C4.09641 19.0197 3.84648 19.0197 3.69227 18.8656C3.53813 18.7114 3.53813 18.4615 3.69227 18.3073L18.3068 3.69275C18.4609 3.53861 18.7109 3.53861 18.8651 3.69275C19.0192 3.84689 19.0192 4.09682 18.8651 4.25096Z" fill="#A1A1AA"/>
<path d="M24.8722 11.9112L11.9112 24.8721C11.7571 25.0263 11.5072 25.0263 11.3529 24.8721C11.1987 24.718 11.1988 24.4681 11.3529 24.3138L24.3139 11.3529C24.468 11.1988 24.7179 11.1988 24.8722 11.3529C25.0264 11.5071 25.0263 11.7571 24.8722 11.9112Z" fill="#A1A1AA"/>
<path d="M15.7603 2.79986L2.7994 15.7608C2.64526 15.9149 2.39534 15.9149 2.24112 15.7608C2.0869 15.6067 2.08698 15.3567 2.24112 15.2025L15.2021 2.24158C15.3562 2.08744 15.6061 2.08744 15.7603 2.24158C15.9146 2.39572 15.9146 2.64564 15.7603 2.79986Z" fill="#A1A1AA"/>
<path d="M12.2993 1.97557L1.97494 12.2999C1.8208 12.4541 1.57088 12.4541 1.41666 12.2999C1.26244 12.1458 1.26252 11.8959 1.41666 11.7417L11.741 1.41736C11.8952 1.26322 12.1451 1.26322 12.2993 1.41736C12.4535 1.5715 12.4535 1.82143 12.2993 1.97557Z" fill="#A1A1AA"/>
<path d="M25.6966 15.3721L15.3722 25.6965C15.218 25.8506 14.9681 25.8506 14.8139 25.6965C14.6597 25.5423 14.6597 25.2924 14.8139 25.1382L25.1383 14.8138C25.2925 14.6597 25.5424 14.6597 25.6966 14.8138C25.8508 14.9681 25.8508 15.218 25.6966 15.3721Z" fill="#A1A1AA"/>
<path d="M23.4211 8.80662L8.80646 23.4212C8.65232 23.5754 8.40239 23.5754 8.24817 23.4212C8.09403 23.2671 8.09403 23.0172 8.24817 22.863L22.8627 8.24842C23.0169 8.09428 23.2668 8.09428 23.421 8.24842C23.5752 8.40248 23.5753 8.6524 23.4211 8.80662Z" fill="#A1A1AA"/>
<path d="M21.1193 6.55279L6.5523 21.1199C6.39816 21.274 6.14824 21.274 5.99402 21.1199C5.83988 20.9658 5.83988 20.7158 5.99402 20.5616L20.5611 5.99451C20.7153 5.84037 20.9652 5.84037 21.1194 5.99451C21.2736 6.14873 21.2736 6.39865 21.1193 6.55279Z" fill="#A1A1AA"/>
<path d="M32.0704 31.4057L31.4059 32.0702C31.1328 32.3434 30.6915 32.3482 30.4124 32.0814L29.8012 31.497C27.1796 28.9938 23.7537 27.3725 20.1552 26.9319L18.0327 26.6719L18.2055 25.2613L20.3279 25.5213C23.3606 25.8927 26.28 27.0377 28.7648 28.8044C26.8367 26.1566 25.6411 23.0252 25.329 19.7177L25.2215 18.5854C25.219 18.5588 25.218 18.532 25.2185 18.5054L25.9356 18.5177L26.6362 18.4512L26.7436 19.5838C27.1338 23.7169 29.0192 27.5523 32.0529 30.3839C32.1937 30.5154 32.2751 30.6984 32.2784 30.8911C32.2818 31.0837 32.2066 31.2695 32.0704 31.4057Z" fill="#FF525D"/>
<path d="M35.4872 32.8063C35.1258 33.2443 34.7458 33.6671 34.348 34.0721C34.1923 34.2318 34.0334 34.3883 33.8712 34.5424C33.5284 34.8699 33.1726 35.1846 32.8063 35.4871L30.2312 32.912C29.8908 32.5708 29.8012 32.0738 29.9618 31.6511C30.0191 31.4994 30.1095 31.3582 30.2312 31.2364L31.2364 30.2311C31.3518 30.1166 31.4848 30.0294 31.6269 29.9722C32.0544 29.7979 32.5643 29.8842 32.912 30.2311L34.4335 31.7535C34.4424 31.7615 34.4505 31.7697 34.4593 31.7785L35.4872 32.8063Z" fill="#BDD50E"/>
<path d="M35.4871 32.8062C35.1257 33.2443 34.7457 33.667 34.348 34.072C34.1923 34.2318 34.0334 34.3883 33.8712 34.5423L31.4026 32.0737L31.2364 31.9075C30.7734 31.4445 30.7734 30.6942 31.2364 30.2311C31.3518 30.1166 31.4849 30.0294 31.6269 29.9722C32.0545 29.7979 32.5643 29.8842 32.9121 30.2311L34.4336 31.7535C34.4425 31.7615 34.4505 31.7697 34.4593 31.7785L35.4871 32.8062Z" fill="#D2ED11"/>
<path d="M26.901 15.2796C26.3565 11.7679 24.4889 8.26662 21.6435 5.42123C19.7307 3.50842 17.5219 2.03779 15.2138 1.11326C14.0868 0.662243 12.9363 0.342009 11.7851 0.162868C8.15077 -0.400179 4.93109 0.507399 2.71897 2.71865C0.506943 4.93076 -0.400635 8.15045 0.163271 11.7847C0.342333 12.9368 0.662646 14.0872 1.11358 15.2134C2.03733 17.5223 3.50796 19.7304 5.42077 21.6431C8.26695 24.4885 11.7674 26.3561 15.2791 26.9006C16.7829 27.1337 18.2165 27.1152 19.5363 26.8555C20.5262 26.6626 21.4523 26.3335 22.2969 25.8744C23.048 25.4662 23.7354 24.9548 24.3452 24.3448C24.9164 23.7737 25.4005 23.1355 25.7934 22.4409C26.2362 21.6616 26.5654 20.8113 26.7776 19.9037C27.1099 18.4839 27.1559 16.9245 26.901 15.2796ZM23.1085 22.5499C23.0214 22.6483 22.931 22.7444 22.8374 22.8379C22.7438 22.9315 22.6487 23.021 22.5502 23.1081C21.9259 23.6631 21.203 24.0955 20.4019 24.3989C20.1276 24.503 19.8436 24.5925 19.5516 24.6651C18.5649 24.9152 17.4807 24.9911 16.3302 24.8837C16.2859 24.8805 16.2415 24.8757 16.1971 24.8708C16.0019 24.8507 15.805 24.8248 15.6058 24.7942C15.4783 24.774 15.3509 24.7523 15.2234 24.728C15.1548 24.7159 15.087 24.703 15.0184 24.6885C14.2625 24.5344 13.5082 24.3101 12.7628 24.0197C12.4998 23.9173 12.2384 23.8068 11.9779 23.6882C11.2252 23.3445 10.4854 22.9339 9.7682 22.4595C9.54554 22.3143 9.32609 22.1619 9.10827 22.0029C8.46046 21.5317 7.83366 21.0082 7.23585 20.4354C7.13257 20.3378 7.03015 20.2377 6.92851 20.1361C6.84382 20.0514 6.75905 19.9651 6.67601 19.8787C6.10241 19.2833 5.5764 18.6581 5.10288 18.0119C4.94312 17.7958 4.79069 17.5771 4.64304 17.3561C4.64304 17.3553 4.64304 17.3553 4.64304 17.3553C4.1671 16.6405 3.75397 15.904 3.4071 15.1529C3.28687 14.8939 3.17554 14.6333 3.07147 14.3719C2.76812 13.6039 2.53421 12.8254 2.37522 12.0453C2.36632 12.005 2.35827 11.9638 2.35101 11.9235C2.34538 11.8961 2.33968 11.8678 2.33569 11.8404C2.31147 11.7129 2.2889 11.5854 2.26952 11.4579C2.24288 11.2894 2.22108 11.1215 2.20257 10.9554C2.19366 10.8812 2.1864 10.8069 2.17999 10.7335C2.07351 9.58311 2.14851 8.49881 2.39858 7.51217C2.47202 7.21935 2.56077 6.93615 2.66483 6.66185C2.96897 5.86076 3.40062 5.13795 3.95562 4.51349C4.04273 4.41506 4.13226 4.3199 4.22585 4.22631C4.31944 4.13271 4.4146 4.04318 4.51304 3.95521C5.13749 3.40099 5.8603 2.96857 6.66218 2.66443C6.93648 2.56037 7.22046 2.47162 7.51249 2.39818C8.49913 2.1481 9.58179 2.0731 10.7322 2.17873C10.8064 2.18521 10.8806 2.19326 10.9556 2.20209C11.1218 2.22068 11.2896 2.2424 11.4582 2.26904C11.5857 2.2892 11.7131 2.31099 11.8406 2.33521C11.868 2.33927 11.8955 2.3449 11.9229 2.35052C11.9632 2.35779 12.0044 2.36584 12.0447 2.37474C12.8248 2.53287 13.6033 2.76685 14.3713 3.07177C14.6327 3.17506 14.8941 3.28638 15.153 3.40654C15.9033 3.75342 16.6407 4.16732 17.3555 4.64326C17.5765 4.79006 17.7959 4.94334 18.0122 5.1031C18.6584 5.5767 19.2828 6.10264 19.8782 6.67623C19.9645 6.75849 20.0509 6.84326 20.1355 6.92795C20.2372 7.02959 20.3373 7.13209 20.4356 7.23529C21.0068 7.8331 21.5304 8.45912 22.0023 9.10771C22.1605 9.32553 22.313 9.54576 22.459 9.76764C22.9334 10.4848 23.344 11.2246 23.6877 11.9781C23.807 12.2379 23.9176 12.5001 24.0192 12.763C24.3105 13.5076 24.5348 14.2627 24.6888 15.0187C24.7034 15.0872 24.7162 15.155 24.7284 15.2236C24.7526 15.3511 24.7752 15.4785 24.7945 15.606C24.8252 15.8053 24.851 16.0021 24.8712 16.1973C24.876 16.2417 24.8809 16.2861 24.8841 16.3305C24.9905 17.4808 24.9155 18.5643 24.6655 19.5509C24.5929 19.8437 24.5033 20.1269 24.3992 20.4012C24.0959 21.2026 23.6635 21.9255 23.1085 22.5499Z" fill="#FF525D"/>
<path d="M28.9267 9.78403C28.8945 9.9597 28.8561 10.1329 28.8117 10.303C28.1127 12.9789 25.9302 14.9324 23.3272 15.4308C22.9827 15.4975 22.6303 15.5379 22.2731 15.5513C21.768 15.5708 21.2535 15.5351 20.7356 15.4402C19.6466 15.2406 18.662 14.8007 17.8274 14.1844C17.5924 14.0115 17.369 13.8238 17.1591 13.6237C15.4939 12.0418 14.635 9.67711 15.0794 7.24904C15.2389 6.37838 15.5522 5.57494 15.9861 4.861C16.2355 4.4504 16.5245 4.06982 16.8478 3.72312C18.0129 2.47176 19.6159 1.66445 21.359 1.50568C21.9829 1.44845 22.6242 1.47459 23.2703 1.59292C25.2432 1.95403 26.8723 3.10535 27.8908 4.66059C28.1725 5.09012 28.4076 5.55009 28.5893 6.03351C29.0279 7.19085 29.1656 8.47835 28.9267 9.78403Z" fill="#BDD50E"/>
<path d="M28.9265 9.78403C28.8944 9.95969 28.856 10.1329 28.8115 10.3029C27.9248 11.8837 26.3751 12.9961 24.6021 13.3356C24.301 13.3933 23.9932 13.4288 23.6809 13.4405C23.2396 13.4578 22.7902 13.4267 22.3374 13.3433C21.3855 13.1694 20.5254 12.7849 19.7959 12.246C19.5909 12.0954 19.3953 11.9309 19.212 11.7564C17.7569 10.3741 17.0062 8.3071 17.3945 6.18518C17.534 5.42455 17.8079 4.72223 18.1869 4.09822C18.4052 3.7399 18.6575 3.40697 18.9403 3.10416C19.607 2.3885 20.4372 1.83839 21.3589 1.50568C21.9828 1.44845 22.6241 1.47459 23.2702 1.59292C25.2431 1.95403 26.8723 3.10535 27.8907 4.66059C28.1725 5.09012 28.4075 5.55009 28.5892 6.0335C29.0278 7.19085 29.1654 8.47835 28.9265 9.78403Z" fill="#D2ED11"/>
<path d="M18.4682 11.2522C18.4176 12.228 18.2209 13.1752 17.8836 14.0686C17.8775 14.0842 17.8708 14.0997 17.8631 14.1147L17.8276 14.183C17.5926 14.0102 17.3691 13.8225 17.1593 13.6224C17.4326 12.8545 17.5927 12.0433 17.636 11.2093C17.6882 10.2096 17.3044 9.30132 16.8981 8.33943C16.4752 7.33591 16.0025 6.21805 15.9863 4.85955C16.2358 4.44896 16.5247 4.06838 16.8481 3.72168V4.21069C16.8481 4.22511 16.8475 4.23898 16.8465 4.25286C16.6969 5.71914 17.1898 6.8866 17.666 8.015C18.091 9.02142 18.5298 10.0621 18.4682 11.2522Z" fill="#FCF8F2"/>
<path d="M28.5895 6.03122C28.4817 6.31015 28.3039 6.58736 28.0644 6.84295C27.5933 7.3453 26.926 7.73244 26.1359 7.96307C23.4372 8.75037 22.0343 10.3195 21.9664 12.6275C21.9369 13.6232 22.5259 14.6928 23.0948 15.1935C23.1025 15.2001 23.1104 15.2074 23.1176 15.2146L23.3272 15.4285C22.9827 15.4952 22.6303 15.5357 22.2731 15.549C21.6469 14.8505 21.1008 13.7093 21.1329 12.6031C21.1879 10.7401 22.0598 8.28363 25.9025 7.16297C27.3154 6.7513 27.9144 5.85782 27.8749 5.38322C27.8738 5.37214 27.8732 5.36042 27.8732 5.3488V5.33718L27.8909 4.6582C28.1727 5.08773 28.4078 5.54781 28.5895 6.03122Z" fill="#FCF8F2"/>
</svg>
